<svg xmlns="http://www.w3.org/2000/svg" xmlns:xlink="http://www.w3.org/1999/xlink" width="48" zoomAndPan="magnify" viewBox="0 0 36 36.000001" height="48" preserveAspectRatio="xMidYMid meet" version="1.0"><defs><g/><clipPath id="8248ce0518"><path d="M 0.488281 0 L 35.511719 0 L 35.511719 35.027344 L 0.488281 35.027344 Z M 0.488281 0 " clip-rule="nonzero"/></clipPath><clipPath id="e0ff06314d"><path d="M 18 0 C 8.328125 0 0.488281 7.839844 0.488281 17.511719 C 0.488281 27.1875 8.328125 35.027344 18 35.027344 C 27.671875 35.027344 35.511719 27.1875 35.511719 17.511719 C 35.511719 7.839844 27.671875 0 18 0 Z M 18 0 " clip-rule="nonzero"/></clipPath></defs><g clip-path="url(#8248ce0518)"><g clip-path="url(#e0ff06314d)"><path fill="#0097b2" d="M 0.488281 0 L 35.511719 0 L 35.511719 35.027344 L 0.488281 35.027344 Z M 0.488281 0 " fill-opacity="1" fill-rule="nonzero"/><path stroke-linecap="butt" transform="matrix(0.72973, 0, 0, 0.72973, 0.486486, 0.00000194595)" fill="none" stroke-linejoin="miter" d="M 24.000001 -0.00000266667 C 10.74595 -0.00000266667 0.00246016 10.743487 0.00246016 23.997538 C 0.00246016 37.256942 10.74595 48.000432 24.000001 48.000432 C 37.254052 48.000432 47.997542 37.256942 47.997542 23.997538 C 47.997542 10.743487 37.254052 -0.00000266667 24.000001 -0.00000266667 Z M 24.000001 -0.00000266667 " stroke="#d77723" stroke-width="2" stroke-opacity="1" stroke-miterlimit="4"/></g></g><g fill="#f5f3f5" fill-opacity="1"><g transform="translate(12.303819, 24.102761)"><g><path d="M 13.5625 0 L 13.5625 -0.90625 L 13.640625 -0.90625 C 13.867188 -0.90625 14.078125 -0.921875 14.265625 -0.953125 C 14.453125 -0.984375 14.609375 -1.046875 14.734375 -1.140625 C 14.859375 -1.234375 14.957031 -1.367188 15.03125 -1.546875 C 15.113281 -1.722656 15.160156 -1.957031 15.171875 -2.25 L 15.171875 -13.6875 L 10.28125 0 L 9.109375 0 L 4.15625 -13.640625 L 4.15625 -2.4375 C 4.15625 -2.101562 4.1875 -1.832031 4.25 -1.625 C 4.320312 -1.425781 4.425781 -1.269531 4.5625 -1.15625 C 4.695312 -1.050781 4.859375 -0.984375 5.046875 -0.953125 C 5.242188 -0.921875 5.460938 -0.90625 5.703125 -0.90625 L 5.765625 -0.90625 L 5.765625 0 L 0.8125 0 L 0.8125 -0.90625 L 1.09375 -0.90625 C 1.320312 -0.90625 1.539062 -0.921875 1.75 -0.953125 C 1.96875 -0.984375 2.15625 -1.046875 2.3125 -1.140625 C 2.476562 -1.234375 2.609375 -1.375 2.703125 -1.5625 C 2.796875 -1.757812 2.84375 -2.015625 2.84375 -2.328125 L 2.84375 -12.921875 C 2.84375 -13.242188 2.796875 -13.5 2.703125 -13.6875 C 2.609375 -13.875 2.476562 -14.019531 2.3125 -14.125 C 2.15625 -14.226562 1.96875 -14.296875 1.75 -14.328125 C 1.539062 -14.359375 1.320312 -14.375 1.09375 -14.375 L 0.8125 -14.375 L 0.8125 -15.28125 L 5.703125 -15.28125 L 10.125 -3.046875 L 14.515625 -15.28125 L 19.265625 -15.28125 L 19.265625 -14.375 L 18.984375 -14.375 C 18.742188 -14.375 18.515625 -14.359375 18.296875 -14.328125 C 18.085938 -14.296875 17.898438 -14.222656 17.734375 -14.109375 C 17.578125 -14.003906 17.453125 -13.847656 17.359375 -13.640625 C 17.273438 -13.441406 17.234375 -13.175781 17.234375 -12.84375 L 17.234375 -2.4375 C 17.234375 -2.101562 17.273438 -1.832031 17.359375 -1.625 C 17.453125 -1.425781 17.578125 -1.269531 17.734375 -1.15625 C 17.898438 -1.050781 18.085938 -0.984375 18.296875 -0.953125 C 18.515625 -0.921875 18.742188 -0.90625 18.984375 -0.90625 L 19.265625 -0.90625 L 19.265625 0 Z M 13.5625 0 "/></g></g></g><g fill="#f5f3f5" fill-opacity="1"><g transform="translate(3.913716, 24.102761)"><g><path d="M 0.8125 0 L 0.8125 -0.90625 L 1.09375 -0.90625 C 1.332031 -0.90625 1.554688 -0.921875 1.765625 -0.953125 C 1.984375 -0.984375 2.171875 -1.050781 2.328125 -1.15625 C 2.492188 -1.269531 2.617188 -1.425781 2.703125 -1.625 C 2.796875 -1.832031 2.84375 -2.101562 2.84375 -2.4375 L 2.84375 -12.84375 C 2.84375 -13.175781 2.796875 -13.441406 2.703125 -13.640625 C 2.617188 -13.847656 2.492188 -14.003906 2.328125 -14.109375 C 2.171875 -14.222656 1.984375 -14.296875 1.765625 -14.328125 C 1.554688 -14.359375 1.332031 -14.375 1.09375 -14.375 L 0.8125 -14.375 L 0.8125 -15.28125 L 7.046875 -15.28125 L 7.046875 -14.375 L 6.765625 -14.375 C 6.523438 -14.375 6.296875 -14.359375 6.078125 -14.328125 C 5.867188 -14.296875 5.679688 -14.226562 5.515625 -14.125 C 5.359375 -14.019531 5.234375 -13.875 5.140625 -13.6875 C 5.046875 -13.5 5 -13.242188 5 -12.921875 L 5 -1.0625 L 9.234375 -1.0625 C 9.546875 -1.0625 9.816406 -1.117188 10.046875 -1.234375 C 10.273438 -1.347656 10.460938 -1.5 10.609375 -1.6875 C 10.753906 -1.875 10.863281 -2.082031 10.9375 -2.3125 C 11.019531 -2.539062 11.078125 -2.769531 11.109375 -3 L 11.3125 -4.59375 L 12.4375 -4.59375 L 12.296875 0 Z M 0.8125 0 "/></g></g></g></svg>